{"title":"The Orphan Killer 2011 DVDRip Xvid BigPerm LKRG","uid":7135000,"size":805577103,"categoryP":"video","categoryS":"movies","magnet":"?xt=urn:btih:7dbaecaa9df4c90331f5b921ebb482bc7adb3b0b&amp;dn=The+Orphan+Killer+2011+DVDRip+Xvid+BigPerm+LKRG&amp;tr=udp%3A%2F%2Ftracker.openbittorrent.com%3A80&amp;tr=udp%3A%2F%2Fopen.demonii.com%3A1337&amp;tr=udp%3A%2F%2Ftracker.coppersurfer.tk%3A6969&amp;tr=udp%3A%2F%2Fexodus.desync.com%3A6969","seeders":2,"leechers":0,"uploader":".BONE.","files":2,"time":1332827259,"description":"PLOT\n\nThe Orphan Killer is a tour de force murder flick that defies classification. It goes far beyond current trends in gore and breaks\nopen a new suffering genre of horror..\n\nEncoded By .......: BigPerm\nRuntime ..........: 1h 22mn\nFile Size ........: 768 MB\nResolution .......: 640 x 272 &lt;a href=&quot;\nhttp://www.imdb.com/title/tt1179071/&quot; rel=&quot;nofollow&quot; target=&quot;_NEW&quot;&gt;\nhttp://www.imdb.com/title/tt1179071/&lt;/a&gt;\nGenre ............: Horror\nLanguage .........: English\nSubtitles ........: None\nVideo\nID : 0\nFormat : MPEG-4 Visual\nFormat profile : Advanced Simple@L5\nFormat settings, BVOP : Yes\nFormat settings, QPel : No\nFormat settings, GMC : No warppoints\nFormat settings, Matrix : Default (H.263)\nMuxing mode : Packed bitstream\nCodec ID : XVID\nCodec ID/Hint : XviD\nDuration : 1h 22mn\nBit rate : 846 Kbps\nWidth : 640 pixels\nHeight : 272 pixels\nDisplay aspect ratio : 2.35:1\nFrame rate : 23.976 fps\nColor space : YUV\nChroma subsampling : 4:2:0\nBit depth : 8 bits\nScan type : Progressive\nCompression mode : Lossy\nBits/(Pixel*Frame) : 0.203\nStream size : 499 MiB (65%)\nWriting library : XviD 1.2.1 (UTC 2008-12-04)\n\nAudio\nID : 1\nFormat : AC-3\nFormat/Info : Audio Coding 3\nMode extension : CM (complete main)\nCodec ID : 2000\nDuration : 1h 22mn\nBit rate mode : Constant\nBit rate : 448 Kbps\nChannel(s) : 6 channels\nChannel positions : Front: L C R, Side: L R, LFE\nSampling rate : 48.0 KHz\nBit depth : 16 bits\nCompression mode : Lossy\nVideo delay : 19ms\nStream size : 264 MiB (34%)\nAlignment : Split accross interleaves\nInterleave, duration : 42 ms (1.00 video frame)\nInterleave, preload duration : 500 ms","torrent":{"xt":"urn:btih:7dbaecaa9df4c90331f5b921ebb482bc7adb3b0b","amp;dn":"The+Orphan+Killer+2011+DVDRip+Xvid+BigPerm+LKRG","amp;tr":["udp%3A%2F%2Ftracker.openbittorrent.com%3A80","udp%3A%2F%2Fopen.demonii.com%3A1337","udp%3A%2F%2Ftracker.coppersurfer.tk%3A6969","udp%3A%2F%2Fexodus.desync.com%3A6969"],"infoHash":"7dbaecaa9df4c90331f5b921ebb482bc7adb3b0b","infoHashBuffer":{"type":"Buffer","data":[125,186,236,170,157,244,201,3,49,245,185,33,235,180,130,188,122,219,59,11]},"announce":[],"urlList":[]}}